<svg width="27" height="25" viewBox="0 0 27 25" fill="none" xmlns="http://www.w3.org/2000/svg">
<path d="M13.643 0C10.2566 0 7.00876 1.31696 4.61415 3.66116C2.21955 6.00537 0.874268 9.18479 0.874268 12.5C0.874268 15.8152 2.21955 18.9946 4.61415 21.3388C7.00876 23.683 10.2566 25 13.643 25C17.0295 25 20.2773 23.683 22.6719 21.3388C25.0665 18.9946 26.4118 15.8152 26.4118 12.5C26.4118 9.18479 25.0665 6.00537 22.6719 3.66116C20.2773 1.31696 17.0295 0 13.643 0Z" fill="#29B6F6"/>
<path d="M19.8679 6.875L17.4765 18.8288C17.4765 18.8288 17.3737 19.375 16.6816 19.375C16.3139 19.375 16.1243 19.2038 16.1243 19.2038L10.9443 14.9956L8.40983 13.745L5.15716 12.8981C5.15716 12.8981 4.57812 12.7344 4.57812 12.2656C4.57812 11.875 5.17376 11.6888 5.17376 11.6888L18.782 6.39625C18.782 6.39625 19.1976 6.24938 19.5008 6.25C19.6873 6.25 19.8998 6.32813 19.8998 6.5625C19.8998 6.71875 19.8679 6.875 19.8679 6.875Z" fill="white"/>
<path d="M15.1541 16.5656L11.074 18.6744C11.074 18.6744 10.8966 18.7463 10.6596 18.7494C10.5774 18.7506 10.4893 18.7438 10.3988 18.7225L11.5468 14.9944L15.1541 16.5656Z" fill="#B0BEC5"/>
<path d="M17.3305 8.87243C17.2226 8.73493 17.0234 8.70993 16.883 8.81431L8.45862 13.7499C8.45862 13.7499 9.80309 17.4324 10.008 18.0699C10.2136 18.7081 10.3783 18.7231 10.3783 18.7231L10.9937 14.9949L17.2705 9.30993C17.4109 9.20556 17.4371 9.00993 17.3305 8.87243Z" fill="#CFD8DC"/>
</svg>
