<svg width="27" height="26" viewBox="0 0 27 26" fill="none" xmlns="http://www.w3.org/2000/svg">
<path d="M1.54773 24.5644L3.26768 18.4175C2.2066 16.6187 1.6486 14.5775 1.64924 12.4869C1.65243 5.94625 7.08938 0.625 13.7713 0.625C17.0139 0.62625 20.0567 1.86188 22.3455 4.10375C24.6337 6.34625 25.8939 9.32625 25.8927 12.4963C25.8901 19.0369 20.4519 24.3587 13.7713 24.3587H13.7662C11.7378 24.3581 9.744 23.86 7.97361 22.9144L1.54773 24.5644Z" fill="white"/>
<path d="M1.51389 24.8769C1.42961 24.8769 1.34789 24.8444 1.28724 24.7844C1.20744 24.705 1.17615 24.5894 1.20616 24.4825L2.891 18.46C1.84651 16.6437 1.29554 14.5812 1.29682 12.4875C1.29937 5.77375 6.87997 0.3125 13.7374 0.3125C17.0637 0.31375 20.1889 1.58188 22.5377 3.88313C24.8865 6.185 26.1793 9.24375 26.1781 12.4963C26.1755 19.2094 20.5943 24.6712 13.7374 24.6712C11.7015 24.6706 9.68718 24.1787 7.89955 23.2481L1.59497 24.8662C1.56815 24.8737 1.54134 24.8769 1.51389 24.8769Z" fill="white"/>
<path d="M13.3518 0.625C16.5944 0.62625 19.6372 1.86188 21.926 4.10375C24.2142 6.34625 25.4744 9.32625 25.4732 12.4963C25.4706 19.0369 20.0324 24.3587 13.3518 24.3587H13.3467C11.3183 24.3581 9.32448 23.86 7.55409 22.9144L1.1282 24.5644L2.84816 18.4175C1.78707 16.6187 1.22908 14.5775 1.22972 12.4869C1.23291 5.94625 6.66985 0.625 13.3518 0.625ZM13.3518 0C6.31871 0 0.594469 5.60125 0.591276 12.4869C0.590638 14.5913 1.13331 16.665 2.16247 18.5006L0.51211 24.4C0.452097 24.6156 0.513387 24.8456 0.674273 25.0044C0.795577 25.1244 0.959656 25.19 1.1282 25.19C1.18247 25.19 1.23674 25.1831 1.29037 25.1694L7.47493 23.5819C9.28043 24.4994 11.3043 24.9837 13.3467 24.9844C20.3848 24.9844 26.109 19.3825 26.1122 12.4969C26.1135 9.16 24.7875 6.0225 22.3786 3.6625C19.9685 1.30187 16.7629 0.00125 13.3518 0Z" fill="#CFD8DC"/>
<path d="M20.5135 5.52016C18.611 3.65641 16.0821 2.62953 13.3904 2.62891C7.83347 2.62891 3.31396 7.05141 3.3114 12.4877C3.31076 14.3508 3.84322 16.1645 4.85196 17.7352L5.09201 18.1083L4.0737 21.7464L7.8871 20.7677L8.25548 20.9814C9.80178 21.8802 11.5754 22.3552 13.3834 22.3558H13.3873C18.9404 22.3558 23.4599 17.9327 23.4618 12.4958C23.4625 9.86141 22.4161 7.38391 20.5135 5.52016Z" fill="#40C351"/>
<path fill-rule="evenodd" clip-rule="evenodd" d="M10.3224 7.52818C10.0957 7.03443 9.85693 7.02443 9.6405 7.01568C9.46364 7.00818 9.26189 7.0088 9.06014 7.0088C8.85839 7.0088 8.53022 7.08318 8.25249 7.38005C7.97476 7.67693 7.19202 8.3938 7.19202 9.85255C7.19202 11.3113 8.27739 12.7213 8.42871 12.9188C8.58002 13.1163 10.5241 16.2057 13.6028 17.3944C16.1611 18.3819 16.682 18.1857 17.2375 18.1363C17.7929 18.0869 19.0296 17.4194 19.2818 16.7269C19.534 16.0344 19.534 15.4413 19.4587 15.3176C19.3827 15.1938 19.1809 15.1201 18.8783 14.9713C18.5757 14.8226 17.0862 14.1057 16.8084 14.0069C16.5307 13.9082 16.329 13.8588 16.1266 14.1557C15.9248 14.4519 15.3445 15.1201 15.1676 15.3176C14.9908 15.5157 14.8139 15.5407 14.5113 15.3919C14.2087 15.2432 13.2331 14.9307 12.0756 13.9207C11.1753 13.1351 10.5675 12.1644 10.3907 11.8676C10.2138 11.5713 10.3715 11.4107 10.5235 11.2626C10.6595 11.1294 10.8261 10.9163 10.9781 10.7432C11.1294 10.5701 11.1798 10.4463 11.2807 10.2488C11.3816 10.0507 11.3311 9.87755 11.2552 9.72943C11.1805 9.58068 10.5918 8.11443 10.3224 7.52818Z" fill="white"/>
</svg>
